<svg width="298" height="65" viewBox="0 0 298 65" fill="none" xmlns="http://www.w3.org/2000/svg">
<path fill-rule="evenodd" clip-rule="evenodd" d="M29.7876 54.1593C29.7876 52.6638 31 51.4514 32.4956 51.4514H56.8672C58.3628 51.4514 59.5752 52.6638 59.5752 54.1593C59.5752 55.6549 58.3628 56.8673 56.8672 56.8673H32.4956C31 56.8673 29.7876 55.6549 29.7876 54.1593Z" fill="#FDBAA3"/>
<path fill-rule="evenodd" clip-rule="evenodd" d="M48.7434 10.5033C47.9381 10.5033 47.1657 10.8232 46.5963 11.3927L13.2771 44.7119L11.8457 50.4376L17.5713 49.0061L50.8905 15.687C51.1725 15.405 51.3961 15.0702 51.5487 14.7018C51.7013 14.3334 51.7799 13.9386 51.7799 13.5398C51.7799 13.1411 51.7013 12.7462 51.5487 12.3778C51.3961 12.0094 51.1725 11.6747 50.8905 11.3927C50.6085 11.1107 50.2738 10.8871 49.9054 10.7345C49.537 10.5819 49.1421 10.5033 48.7434 10.5033ZM42.7666 7.56306C44.3518 5.97792 46.5017 5.0874 48.7434 5.0874C49.8534 5.0874 50.9525 5.30603 51.978 5.7308C53.0035 6.15558 53.9353 6.77818 54.7202 7.56306C55.505 8.34794 56.1276 9.27973 56.5524 10.3052C56.9772 11.3307 57.1958 12.4298 57.1958 13.5398C57.1958 14.6498 56.9772 15.7489 56.5524 16.7744C56.1276 17.7999 55.505 18.7317 54.7202 19.5166L20.8706 53.3662C20.5235 53.7132 20.0887 53.9594 19.6126 54.0784L8.78069 56.7864C7.85789 57.0171 6.8817 56.7467 6.2091 56.0741C5.53649 55.4015 5.2661 54.4253 5.4968 53.5025L8.20477 42.6707C8.32381 42.1945 8.57001 41.7597 8.91706 41.4126L42.7666 7.56306Z" fill="#1B1F23"/>
<path d="M106.315 16.6145C106.315 16.434 106.369 16.2895 106.477 16.1812C106.622 16.0368 106.784 15.9646 106.965 15.9646H113.301C113.482 15.9646 113.626 16.0368 113.734 16.1812C113.879 16.2895 113.951 16.434 113.951 16.6145V53.2262C113.951 53.4067 113.879 53.5692 113.734 53.7136C113.626 53.8219 113.482 53.8761 113.301 53.8761H107.181C106.82 53.8761 106.567 53.7317 106.423 53.4428L92.3957 30.2626C92.3235 30.1543 92.2513 30.1182 92.1791 30.1543C92.1069 30.1543 92.0707 30.2265 92.0707 30.371L92.1791 53.2262C92.1791 53.4067 92.1069 53.5692 91.9624 53.7136C91.8541 53.8219 91.7097 53.8761 91.5292 53.8761H85.1925C85.012 53.8761 84.8495 53.8219 84.7051 53.7136C84.5968 53.5692 84.5426 53.4067 84.5426 53.2262V16.6145C84.5426 16.434 84.5968 16.2895 84.7051 16.1812C84.8495 16.0368 85.012 15.9646 85.1925 15.9646H91.3125C91.6736 15.9646 91.9263 16.109 92.0707 16.3979L106.044 39.4697C106.116 39.578 106.188 39.6322 106.26 39.6322C106.333 39.5961 106.369 39.5058 106.369 39.3614L106.315 16.6145Z" fill="#1B1F23"/>
<path d="M134.046 54.4718C131.23 54.4718 128.739 53.8941 126.572 52.7387C124.442 51.5833 122.781 49.9766 121.59 47.9186C120.398 45.8244 119.802 43.4233 119.802 40.7154V29.1253C119.802 26.4534 120.398 24.0885 121.59 22.0304C122.781 19.9724 124.442 18.3837 126.572 17.2644C128.739 16.109 131.23 15.5313 134.046 15.5313C136.899 15.5313 139.39 16.109 141.52 17.2644C143.687 18.3837 145.366 19.9724 146.557 22.0304C147.749 24.0885 148.344 26.4534 148.344 29.1253V40.7154C148.344 43.4233 147.749 45.8244 146.557 47.9186C145.366 50.0127 143.687 51.6375 141.52 52.7929C139.39 53.9122 136.899 54.4718 134.046 54.4718ZM134.046 47.9186C136.032 47.9186 137.639 47.2867 138.866 46.023C140.094 44.7593 140.708 43.0803 140.708 40.9862V29.0711C140.708 26.977 140.094 25.298 138.866 24.0343C137.675 22.7345 136.068 22.0846 134.046 22.0846C132.06 22.0846 130.454 22.7345 129.226 24.0343C128.035 25.298 127.439 26.977 127.439 29.0711V40.9862C127.439 43.0803 128.035 44.7593 129.226 46.023C130.454 47.2867 132.06 47.9186 134.046 47.9186Z" fill="#1B1F23"/>
<path d="M179.934 15.9646C180.115 15.9646 180.259 16.0368 180.368 16.1812C180.512 16.2895 180.584 16.434 180.584 16.6145V21.9221C180.584 22.1026 180.512 22.2651 180.368 22.4095C180.259 22.5179 180.115 22.572 179.934 22.572H170.24C170.059 22.572 169.969 22.6623 169.969 22.8428V53.2262C169.969 53.4067 169.897 53.5692 169.753 53.7136C169.644 53.8219 169.5 53.8761 169.319 53.8761H162.983C162.802 53.8761 162.64 53.8219 162.495 53.7136C162.387 53.5692 162.333 53.4067 162.333 53.2262V22.8428C162.333 22.6623 162.242 22.572 162.062 22.572H152.638C152.458 22.572 152.295 22.5179 152.151 22.4095C152.042 22.2651 151.988 22.1026 151.988 21.9221V16.6145C151.988 16.434 152.042 16.2895 152.151 16.1812C152.295 16.0368 152.458 15.9646 152.638 15.9646H179.934Z" fill="#1B1F23"/>
<path d="M211.778 21.8679C211.778 22.0485 211.706 22.211 211.561 22.3554C211.453 22.4637 211.309 22.5179 211.128 22.5179H193.364C193.183 22.5179 193.093 22.6081 193.093 22.7887V31.1833C193.093 31.3639 193.183 31.4541 193.364 31.4541H205.008C205.189 31.4541 205.333 31.5264 205.441 31.6708C205.586 31.7791 205.658 31.9235 205.658 32.1041V37.3575C205.658 37.538 205.586 37.7005 205.441 37.8449C205.333 37.9533 205.189 38.0074 205.008 38.0074H193.364C193.183 38.0074 193.093 38.0977 193.093 38.2782V47.052C193.093 47.2326 193.183 47.3228 193.364 47.3228H211.128C211.309 47.3228 211.453 47.395 211.561 47.5395C211.706 47.6478 211.778 47.7922 211.778 47.9727V53.2262C211.778 53.4067 211.706 53.5692 211.561 53.7136C211.453 53.8219 211.309 53.8761 211.128 53.8761H186.107C185.926 53.8761 185.764 53.8219 185.619 53.7136C185.511 53.5692 185.457 53.4067 185.457 53.2262V16.6145C185.457 16.434 185.511 16.2895 185.619 16.1812C185.764 16.0368 185.926 15.9646 186.107 15.9646H211.128C211.309 15.9646 211.453 16.0368 211.561 16.1812C211.706 16.2895 211.778 16.434 211.778 16.6145V21.8679Z" fill="#1B1F23"/>
<path d="M220.822 54.0927C219.594 54.0927 218.565 53.6956 217.735 52.9012C216.94 52.0708 216.543 51.0418 216.543 49.8141C216.543 48.5504 216.94 47.5214 217.735 46.7271C218.529 45.9327 219.558 45.5356 220.822 45.5356C222.085 45.5356 223.115 45.9327 223.909 46.7271C224.703 47.5214 225.1 48.5504 225.1 49.8141C225.1 51.0418 224.685 52.0708 223.855 52.9012C223.06 53.6956 222.049 54.0927 220.822 54.0927Z" fill="#1B1F23"/>
<path d="M261.849 26.0924C264.196 26.0924 266.019 26.7603 267.319 28.0963C268.655 29.3961 269.323 31.2194 269.323 33.5664C269.323 33.8552 269.287 34.3968 269.215 35.1911L266.994 53.3345C266.922 53.6956 266.723 53.8761 266.399 53.8761H263.799C263.474 53.8761 263.311 53.6956 263.311 53.3345L265.478 35.9494C265.514 35.6966 265.532 35.3356 265.532 34.8662C265.532 33.2053 265.063 31.8874 264.124 30.9125C263.185 29.9377 261.903 29.4502 260.279 29.4502C258.401 29.4502 256.83 30.0279 255.567 31.1833C254.303 32.3387 253.545 33.8913 253.292 35.841L251.126 53.3345C251.126 53.4789 251.071 53.6053 250.963 53.7136C250.855 53.8219 250.71 53.8761 250.53 53.8761H247.876C247.551 53.8761 247.389 53.6956 247.389 53.3345L249.555 35.9494C249.591 35.6966 249.609 35.3175 249.609 34.812C249.609 33.1511 249.14 31.8513 248.201 30.9125C247.262 29.9377 245.98 29.4502 244.356 29.4502C242.514 29.4502 240.962 30.0279 239.698 31.1833C238.47 32.3387 237.73 33.8913 237.477 35.841L235.311 53.3345C235.311 53.4789 235.257 53.6053 235.149 53.7136C235.04 53.8219 234.896 53.8761 234.715 53.8761H232.062C231.737 53.8761 231.574 53.6956 231.574 53.3345L234.824 27.0131C234.896 26.652 235.094 26.4715 235.419 26.4715H238.073C238.254 26.4715 238.38 26.5256 238.452 26.634C238.561 26.7423 238.597 26.8687 238.561 27.0131L238.29 29.1795C238.29 29.2517 238.308 29.3058 238.344 29.3419C238.416 29.3419 238.488 29.3058 238.561 29.2336C239.463 28.1865 240.546 27.4102 241.81 26.9048C243.074 26.3632 244.446 26.0924 245.926 26.0924C247.732 26.0924 249.23 26.4715 250.422 27.2297C251.649 27.9879 252.516 29.0892 253.021 30.5334C253.021 30.6056 253.039 30.6418 253.075 30.6418C253.148 30.6418 253.202 30.6056 253.238 30.5334C254.177 29.0531 255.404 27.9518 256.921 27.2297C258.437 26.4715 260.08 26.0924 261.849 26.0924Z" fill="#1B1F23"/>
<path d="M297.211 35.5702C297.211 36.9423 297.048 38.7837 296.723 41.0945C296.723 41.2389 296.669 41.3653 296.561 41.4736C296.453 41.5819 296.308 41.6361 296.128 41.6361H279.176C279.031 41.6361 278.959 41.7083 278.959 41.8527C278.815 43.4414 278.743 44.4524 278.743 44.8856C278.743 46.7271 279.32 48.2074 280.476 49.3267C281.667 50.4099 283.328 50.9515 285.458 50.9515C286.975 50.9515 288.311 50.6085 289.466 49.9225C290.658 49.2364 291.651 48.2616 292.445 46.9979C292.734 46.6729 292.986 46.6007 293.203 46.7812L295.099 48.0269C295.388 48.2074 295.424 48.4602 295.207 48.7851C294.124 50.5182 292.643 51.8902 290.766 52.9012C288.925 53.8761 286.848 54.3635 284.538 54.3635C282.046 54.3274 280.042 53.7136 278.526 52.5221C277.009 51.3306 275.999 49.6697 275.493 47.5395C275.276 46.6007 275.168 45.5536 275.168 44.3982C275.168 43.1345 275.276 41.6902 275.493 40.0655C275.674 38.5129 275.854 37.2672 276.035 36.3285C276.215 35.3897 276.45 34.5412 276.739 33.783C277.605 31.4361 279.031 29.5586 281.017 28.1504C283.003 26.7423 285.278 26.0382 287.841 26.0382C291.019 26.0382 293.366 26.8687 294.882 28.5295C296.399 30.1904 297.175 32.5373 297.211 35.5702ZM287.408 29.3961C285.711 29.3961 284.231 29.8655 282.967 30.8042C281.739 31.7069 280.837 32.9345 280.259 34.4871C280.006 35.2092 279.717 36.4368 279.393 38.1699C279.393 38.3143 279.465 38.3865 279.609 38.3865H293.203C293.348 38.3865 293.42 38.3143 293.42 38.1699C293.492 36.7256 293.528 35.8049 293.528 35.4078C293.528 33.6025 292.986 32.1582 291.903 31.075C290.82 29.9557 289.322 29.3961 287.408 29.3961Z" fill="#1B1F23"/>
</svg>
